HIERARCHY
ROOT Hips
{
	OFFSET 0.00 0.00 0.00
	CHANNELS 6 Xposition Yposition Zposition Xrotation Yrotation Zrotation
	JOINT Spine
	{
		OFFSET 0.00000 1.70439 2.55658
		CHANNELS 3 Xrotation Yrotation Zrotation
		JOINT Spine1
		{
			OFFSET 0.00000 0.59193 3.35699
			CHANNELS 3 Xrotation Yrotation Zrotation
			JOINT Spine2
			{
				OFFSET 0.00000 0.29710 3.39581
				CHANNELS 3 Xrotation Yrotation Zrotation
				JOINT Spine3
				{
					OFFSET 0.00000 0.00000 3.40878
					CHANNELS 3 Xrotation Yrotation Zrotation
					JOINT Neck
					{
						OFFSET 0.00000 -1.27828 8.94804
						CHANNELS 3 Xrotation Yrotation Zrotation
						JOINT Head
						{
							OFFSET 0.00000 -0.81390 4.61586
							CHANNELS 3 Xrotation Yrotation Zrotation
							End Site
							{
								OFFSET 0.00000 0.00001 5.51796
							}
						}
					}
					JOINT RightShoulder
					{
						OFFSET -1.18875 -1.98124 6.41925
						CHANNELS 3 Xrotation Yrotation Zrotation
						JOINT RightArm
						{
							OFFSET -5.90412 0.00000 0.00000
							CHANNELS 3 Xrotation Yrotation Zrotation
							JOINT RightForeArm
							{
								OFFSET -11.94674 0.00000 0.00000
								CHANNELS 3 Xrotation Yrotation Zrotation
								JOINT RightHand
								{
									OFFSET -10.17720 0.00000 0.00000
									CHANNELS 3 Xrotation Yrotation Zrotation
									JOINT RightHandEnd
									{
										OFFSET -2.84518 0.00000 0.00000
										CHANNELS 3 Xrotation Yrotation Zrotation
										End Site
										{
											OFFSET -2.84518 0.00000 0.00000
										}
									}
									JOINT RightHandThumb1
									{
										OFFSET -1.13807 -1.89679 -0.75871
										CHANNELS 3 Yrotation Xrotation Zrotation
										End Site
										{
											OFFSET -2.74823 -0.73639 0.00000
										}
									}
								}
							}
						}
					}
					JOINT LeftShoulder
					{
						OFFSET 1.18875 -1.98124 6.41925
						CHANNELS 3 Xrotation Yrotation Zrotation
						JOINT LeftArm
						{
							OFFSET 5.90412 0.00000 0.00000
							CHANNELS 3 Xrotation Yrotation Zrotation
							JOINT LeftForeArm
							{
								OFFSET 11.94674 0.00000 0.00000
								CHANNELS 3 Xrotation Yrotation Zrotation
								JOINT LeftHand
								{
									OFFSET 10.17720 0.00000 0.00000
									CHANNELS 3 Xrotation Yrotation Zrotation
									JOINT LeftHandEnd
									{
										OFFSET 2.84518 0.00000 0.00000
										CHANNELS 3 Xrotation Yrotation Zrotation
										End Site
										{
											OFFSET 2.84518 0.00000 0.00000
										}
									}
									JOINT LeftHandThumb1
									{
										OFFSET 1.13807 -1.89679 -0.75871
										CHANNELS 3 Yrotation Xrotation Zrotation
										End Site
										{
											OFFSET 2.74823 -0.73639 0.00000
										}
									}
								}
							}
						}
					}
				}
			}
		}
	}
	JOINT RightUpLeg
	{
		OFFSET -3.52662 0.00000 -1.03025
		CHANNELS 3 Xrotation Yrotation Zrotation
		JOINT RightLeg
		{
			OFFSET 0.00001 0.00000 -17.80159
			CHANNELS 3 Xrotation Yrotation Zrotation
			JOINT RightFoot
			{
				OFFSET 0.00001 0.00000 -16.85992
				CHANNELS 3 Xrotation Yrotation Zrotation
				JOINT RightToeBase
				{
					OFFSET 0.00000 -5.42953 -1.97619
					CHANNELS 3 Xrotation Yrotation Zrotation
					End Site
					{
						OFFSET 0.00000 -2.85300 -0.00000
					}
				}
			}
		}
	}
	JOINT LeftUpLeg
	{
		OFFSET 3.52662 0.00000 -1.03025
		CHANNELS 3 Xrotation Yrotation Zrotation
		JOINT LeftLeg
		{
			OFFSET 0.00001 0.00000 -17.80159
			CHANNELS 3 Xrotation Yrotation Zrotation
			JOINT LeftFoot
			{
				OFFSET 0.00001 0.00000 -16.85992
				CHANNELS 3 Xrotation Yrotation Zrotation
				JOINT LeftToeBase
				{
					OFFSET 0.00000 -5.42953 -1.97619
					CHANNELS 3 Xrotation Yrotation Zrotation
					End Site
					{
						OFFSET 0.00000 -2.85300 -0.00000
					}
				}
			}
		}
	}
}
MOTION
Frames: 13
Frame Time: 0.008342
 -1.6428 -12.6686 37.9058 4.0597 3.1232 -176.3045 1.8407 1.9577 -0.6913 0.8261 0.3437 -0.0289 1.9366 -1.7144 -1.2401 0.0941 0.0130 0.6093 3.7816 -0.3198 -2.8073 -1.0060 0.1399 -0.9803 -0.3150 8.5403 -1.9206 -1.6848 2.9822 -0.8815 0.0000 0.0000 12.2834 -5.0820 20.8673 -3.1829 0.0000 0.0000 0.0000 -0.0000 -0.0000 -0.0000 -5.8618 -9.8234 -6.6194 -1.5415 3.5400 1.4574 -0.0000 -0.0000 -16.9940 -4.0539 -20.5400 2.6976 -0.0000 -0.0000 -0.0000 -0.0000 -0.0000 -0.0000 -3.4130 10.9036 -30.3330 25.4131 0.0000 0.0000 -15.2865 -3.6277 -6.5403 3.0221 0.0000 0.0000 -0.3859 -0.9525 4.6624 14.0762 0.0000 0.0000 -8.8647 11.2368 6.0155 -3.4691 0.0000 -0.0000
 -1.6577 -12.6677 37.9060 4.0608 3.0847 -176.3409 1.8025 1.8952 -0.6861 0.8161 0.3486 -0.0285 1.9346 -1.6861 -1.2158 0.0962 0.0188 0.6070 3.8153 -0.2860 -2.7953 -1.0068 0.1535 -0.9736 -0.3694 8.5891 -1.9115 -1.6434 3.0497 -0.8634 0.0000 0.0000 12.2938 -5.0016 20.9248 -3.2467 0.0000 -0.0000 0.0000 -0.0000 0.0000 0.0000 -5.9710 -9.8905 -6.6575 -1.4344 3.4906 1.4089 -0.0000 -0.0000 -16.9055 -4.0952 -20.5304 2.6445 -0.0000 -0.0000 0.0000 0.0000 0.0000 0.0000 -3.2086 10.8019 -30.6497 24.9498 0.0000 0.0000 -15.3085 -3.6044 -6.4400 3.4316 0.0000 0.0000 -0.4266 -0.9568 4.5925 14.1701 0.0000 0.0000 -8.9356 11.1752 6.1089 -3.4685 0.0000 -0.0000
 -1.6769 -12.6662 37.9069 4.0804 3.0278 -176.3974 1.7741 1.8031 -0.6808 0.8013 0.3606 -0.0246 1.9321 -1.6558 -1.1860 0.0986 0.0275 0.6035 3.8534 -0.2427 -2.7747 -1.0023 0.1699 -0.9587 -0.4415 8.6503 -1.8908 -1.5963 3.1360 -0.8371 0.0000 0.0000 12.3057 -4.8979 21.0009 -3.3257 0.0000 -0.0000 -0.0000 -0.0000 -0.0000 0.0000 -6.1097 -9.9678 -6.6951 -1.3253 3.4309 1.3518 -0.0000 -0.0000 -16.8053 -4.1333 -20.5278 2.5817 -0.0000 0.0000 0.0000 -0.0000 0.0000 0.0000 -2.9368 10.6628 -30.9950 24.3762 0.0000 0.0000 -15.3132 -3.5867 -6.2953 3.8802 0.0000 0.0000 -0.4543 -0.9700 4.5080 14.2814 0.0000 0.0000 -9.0259 11.0920 6.2318 -3.4649 0.0000 -0.0000
 -1.7002 -12.6649 37.9084 4.1065 2.9546 -176.4776 1.7430 1.6912 -0.6730 0.7851 0.3663 -0.0225 1.9284 -1.6175 -1.1466 0.1013 0.0375 0.5989 3.8940 -0.1886 -2.7440 -0.9937 0.1884 -0.9350 -0.5318 8.7247 -1.8541 -1.5459 3.2382 -0.8046 0.0000 0.0000 12.3215 -4.7740 21.0931 -3.4167 0.0000 -0.0000 0.0000 0.0000 -0.0000 -0.0000 -6.2768 -10.0465 -6.7287 -1.2213 3.3608 1.2898 -0.0000 -0.0000 -16.7006 -4.1643 -20.5356 2.5125 -0.0000 -0.0000 0.0000 0.0000 0.0000 0.0000 -2.6222 10.4937 -31.3474 23.7140 0.0000 0.0000 -15.2933 -3.5802 -6.1032 4.3432 0.0000 0.0000 -0.4801 -0.9890 4.4165 14.4066 0.0000 0.0000 -9.1320 10.9869 6.3814 -3.4573 0.0000 -0.0000
 -1.7269 -12.6636 37.9111 4.1409 2.8594 -176.5819 1.7125 1.5545 -0.6637 0.7677 0.3688 -0.0206 1.9241 -1.5761 -1.1005 0.1040 0.0480 0.5932 3.9346 -0.1252 -2.7016 -0.9809 0.2094 -0.9011 -0.6369 8.8091 -1.7999 -1.4962 3.3543 -0.7647 0.0000 0.0000 12.3411 -4.6354 21.1945 -3.5125 0.0000 0.0000 0.0000 0.0000 -0.0000 0.0000 -6.4662 -10.1217 -6.7523 -1.1329 3.2847 1.2251 -0.0000 -0.0000 -16.5995 -4.1813 -20.5565 2.4389 0.0000 0.0000 0.0000 0.0000 0.0000 0.0000 -2.2714 10.2902 -31.6865 22.9796 0.0000 0.0000 -15.2371 -3.5907 -5.8671 4.7925 0.0000 0.0000 -0.5002 -1.0221 4.3275 14.5413 0.0000 0.0000 -9.2509 10.8623 6.5485 -3.4447 0.0000 -0.0000
 -1.7564 -12.6631 37.9148 4.1750 2.7445 -176.7106 1.6764 1.3984 -0.6524 0.7491 0.3664 -0.0190 1.9199 -1.5346 -1.0497 0.1070 0.0585 0.5865 3.9729 -0.0527 -2.6470 -0.9648 0.2310 -0.8565 -0.7533 8.9022 -1.7256 -1.4510 3.4791 -0.7194 0.0000 0.0000 12.3664 -4.4889 21.2991 -3.6067 -0.0000 0.0000 -0.0000 0.0000 -0.0000 0.0000 -6.6706 -10.1847 -6.7605 -1.0672 3.2042 1.1611 -0.0000 -0.0000 -16.5096 -4.1812 -20.5926 2.3639 -0.0000 0.0000 0.0000 0.0000 -0.0000 -0.0000 -1.9086 10.0616 -31.9914 22.2035 0.0000 0.0000 -15.1390 -3.6224 -5.5922 5.2029 0.0000 0.0000 -0.5210 -1.0681 4.2506 14.6792 0.0000 0.0000 -9.3765 10.7214 6.7256 -3.4266 0.0000 -0.0000
 -1.7879 -12.6632 37.9198 4.2118 2.6098 -176.8615 1.6410 1.2272 -0.6403 0.7285 0.3569 -0.0175 1.9171 -1.4965 -0.9981 0.1092 0.0673 0.5800 4.0068 0.0271 -2.5793 -0.9462 0.2533 -0.8021 -0.8762 9.0027 -1.6300 -1.4133 3.6066 -0.6695 0.0000 0.0000 12.3976 -4.3433 21.3981 -3.6903 -0.0000 0.0000 0.0000 0.0000 -0.0000 -0.0000 -6.8810 -10.2301 -6.7486 -1.0318 3.1246 1.1021 -0.0000 -0.0000 -16.4405 -4.1575 -20.6445 2.2934 0.0000 -0.0000 -0.0000 -0.0000 -0.0000 0.0000 -1.5427 9.8124 -32.2471 21.4131 0.0000 0.0000 -14.9942 -3.6779 -5.2869 5.5524 0.0000 0.0000 -0.5349 -1.1305 4.1966 14.8113 0.0000 0.0000 -9.5021 10.5692 6.9001 -3.4023 0.0000 -0.0000
 -1.8205 -12.6641 37.9262 4.2486 2.4620 -177.0321 1.6038 1.0485 -0.6259 0.7117 0.3421 -0.0184 1.9132 -1.4659 -0.9449 0.1112 0.0743 0.5721 4.0340 0.1121 -2.4998 -0.9259 0.2759 -0.7387 -1.0001 9.1086 -1.5143 -1.3865 3.7304 -0.6171 0.0000 0.0000 12.4372 -4.2059 21.4849 -3.7585 -0.0000 0.0000 -0.0000 0.0000 -0.0000 -0.0000 -7.0884 -10.2528 -6.7124 -1.0289 3.0496 1.0488 -0.0000 -0.0000 -16.3970 -4.1115 -20.7118 2.2283 0.0000 0.0000 -0.0000 -0.0000 -0.0000 -0.0000 -1.1906 9.5573 -32.4421 20.6408 0.0000 0.0000 -14.8049 -3.7570 -4.9611 5.8259 0.0000 0.0000 -0.5395 -1.2042 4.1732 14.9271 0.0000 0.0000 -9.6193 10.4111 7.0633 -3.3718 0.0000 -0.0000
 -1.8535 -12.6661 37.9339 4.2803 2.3024 -177.2163 1.5662 0.8642 -0.6126 0.6924 0.3237 -0.0191 1.9118 -1.4436 -0.8950 0.1127 0.0768 0.5646 4.0536 0.1996 -2.4103 -0.9064 0.2986 -0.6686 -1.1209 9.2173 -1.3796 -1.3729 3.8446 -0.5663 0.0000 0.0000 12.4874 -4.0847 21.5552 -3.8053 -0.0000 0.0000 -0.0000 -0.0000 -0.0000 0.0000 -7.2856 -10.2494 -6.6532 -1.0595 2.9834 1.0077 -0.0000 -0.0000 -16.3861 -4.0427 -20.7936 2.1732 0.0000 0.0000 0.0000 0.0000 0.0000 0.0000 -0.8696 9.3034 -32.5741 19.9145 0.0000 0.0000 -14.5745 -3.8572 -4.6262 6.0168 0.0000 0.0000 -0.5397 -1.2910 4.1857 15.0234 0.0000 0.0000 -9.7238 10.2534 7.2054 -3.3354 0.0000 -0.0000
 -1.8859 -12.6693 37.9430 4.3086 2.1362 -177.4093 1.5287 0.6839 -0.5979 0.6763 0.3003 -0.0218 1.9118 -1.4338 -0.8504 0.1133 0.0763 0.5571 4.0649 0.2862 -2.3135 -0.8897 0.3211 -0.5930 -1.2327 9.3256 -1.2305 -1.3739 3.9454 -0.5169 0.0000 0.0000 12.5480 -3.9829 21.6036 -3.8312 0.0000 -0.0000 -0.0000 -0.0000 0.0000 0.0000 -7.4641 -10.2193 -6.5698 -1.1209 2.9293 0.9770 -0.0000 -0.0000 -16.4074 -3.9523 -20.8865 2.1298 -0.0000 0.0000 0.0000 0.0000 0.0000 0.0000 -0.5855 9.0600 -32.6478 19.2540 0.0000 0.0000 -14.3104 -3.9740 -4.2913 6.1241 0.0000 0.0000 -0.5292 -1.3887 4.2413 15.0914 0.0000 0.0000 -9.8086 10.1025 7.3148 -3.2936 0.0000 -0.0000
 -1.9170 -12.6735 37.9533 4.3321 1.9665 -177.6033 1.4924 0.5105 -0.5841 0.6623 0.2734 -0.0252 1.9134 -1.4355 -0.8137 0.1133 0.0712 0.5506 4.0678 0.3678 -2.2127 -0.8770 0.3449 -0.5151 -1.3314 9.4304 -1.0720 -1.3902 4.0294 -0.4716 0.0000 0.0000 12.6198 -3.9073 21.6284 -3.8341 0.0000 -0.0000 -0.0000 0.0000 -0.0000 0.0000 -7.6196 -10.1641 -6.4666 -1.2074 2.8899 0.9586 -0.0000 -0.0000 -16.4602 -3.8440 -20.9865 2.1010 0.0000 0.0000 -0.0000 0.0000 -0.0000 0.0000 -0.3442 8.8327 -32.6794 18.6729 0.0000 0.0000 -14.0213 -4.1018 -3.9612 6.1575 0.0000 0.0000 -0.5098 -1.4964 4.3396 15.1296 0.0000 0.0000 -9.8717 9.9644 7.3854 -3.2471 0.0000 -0.0000
 -1.9462 -12.6791 37.9644 4.3456 1.7986 -177.7914 1.4531 0.3479 -0.5714 0.6508 0.2460 -0.0300 1.9169 -1.4484 -0.7856 0.1126 0.0622 0.5453 4.0630 0.4405 -2.1128 -0.8711 0.3698 -0.4365 -1.4143 9.5280 -0.9115 -1.4218 4.0950 -0.4297 0.0000 0.0000 12.7020 -3.8561 21.6320 -3.8189 -0.0000 0.0000 -0.0000 0.0000 0.0000 0.0000 -7.7499 -10.0870 -6.3500 -1.3120 2.8660 0.9520 -0.0000 -0.0000 -16.5401 -3.7224 -21.0872 2.0865 0.0000 0.0000 0.0000 -0.0000 -0.0000 0.0000 -0.1527 8.6280 -32.6896 18.1782 0.0000 0.0000 -13.7188 -4.2342 -3.6383 6.1312 0.0000 0.0000 -0.4880 -1.6103 4.4778 15.1388 0.0000 0.0000 -9.9117 9.8436 7.4134 -3.1967 0.0000 -0.0000
 -1.9735 -12.6856 37.9761 4.3567 1.6406 -177.9667 1.4197 0.2043 -0.5609 0.6410 0.2183 -0.0349 1.9216 -1.4707 -0.7684 0.1109 0.0494 0.5407 4.0520 0.5007 -2.0167 -0.8710 0.3963 -0.3593 -1.4799 9.6169 -0.7521 -1.4649 4.1418 -0.3939 0.0000 0.0000 12.7932 -3.8285 21.6130 -3.7912 -0.0000 -0.0000 -0.0000 -0.0000 -0.0000 -0.0000 -7.8527 -9.9953 -6.2266 -1.4273 2.8603 0.9569 -0.0000 -0.0000 -16.6401 -3.5933 -21.1828 2.0867 0.0000 0.0000 -0.0000 0.0000 -0.0000 0.0000 0.0006 8.4535 -32.7094 17.7677 0.0000 0.0000 -13.4144 -4.3658 -3.3157 6.0632 0.0000 0.0000 -0.4550 -1.7228 4.6489 15.1167 0.0000 0.0000 -9.9272 9.7429 7.3989 -3.1439 0.0000 -0.0000
